<svg id="Layer_1" data-name="Layer 1" xmlns="http://www.w3.org/2000/svg" width="132.05" height="14.64" viewBox="0 0 264.11 29.28">
  <g id="marks">
    <path d="M32.58,128.32v4.12H14.44v-4.12h6.8V115.54h-6.8v-4.12H25.36v16.9Zm-7.22-20.61H20.83v-4.12h4.53Z" transform="translate(-14.44 -103.18)"/>
    <path d="M57.29,118.84v13.6H53.17v-13.6a3.32,3.32,0,0,0-3.3-3.3H48l-4.69,3.18v13.72H39.15v-21h4.13v2.31l3.42-2.31h3.17A7.42,7.42,0,0,1,57.29,118.84Z" transform="translate(-14.44 -103.18)"/>
    <path d="M112.55,110.6v2.06h7.22v4.12h-7.22v15.66h-4.12V116.78h-6.8v-4.12h6.8V110.6a7.39,7.39,0,0,1,7.36-7.42h4v4.12h-3.92a3.26,3.26,0,0,0-3.3,3.22Z" transform="translate(-14.44 -103.18)"/>
    <path d="M144.48,128.32v4.12H126.35v-4.12h6.8V115.54h-6.8v-4.12h10.92v16.9Zm-7.21-20.61h-4.54v-4.12h4.54Z" transform="translate(-14.44 -103.18)"/>
    <path d="M169.2,118.84v13.6h-4.13v-13.6a3.3,3.3,0,0,0-3.29-3.3h-1.9l-4.7,3.18v13.72h-4.12v-21h4.12v2.31l3.42-2.31h3.18A7.42,7.42,0,0,1,169.2,118.84Z" transform="translate(-14.44 -103.18)"/>
    <path d="M193.91,128.32v4.12H175.78v-4.12h6.79V115.54h-6.79v-4.12H186.7v16.9Zm-7.21-20.61h-4.54v-4.12h4.54Z" transform="translate(-14.44 -103.18)"/>
    <path d="M246.2,115.54V125a3.25,3.25,0,0,0,3.2,3.3h4.42v4.12H249.5a7.39,7.39,0,0,1-7.42-7.36v-9.54h-6.39V111.4h6.39V106h4.12v5.36h7.62v4.12Z" transform="translate(-14.44 -103.18)"/>
    <path d="M278.54,119.25v3.63h-14V125a3.31,3.31,0,0,0,3.29,3.3h3.3a3.32,3.32,0,0,0,3.3-3.3v-.41h4.12V125a7.45,7.45,0,0,1-7.42,7.46h-3.3A7.49,7.49,0,0,1,260.4,125v-6.14a7.42,7.42,0,0,1,7.42-7.42h3.3a7.39,7.39,0,0,1,7.42,7Zm-4.12-.41a3.26,3.26,0,0,0-3.22-3.3h-3.38a3.28,3.28,0,0,0-3.29,3.27v.77h9.89Z" transform="translate(-14.44 -103.18)"/>
  </g>
</svg>
