<?xml version="1.0" encoding="utf-8"?>
<!-- Generator: Adobe Illustrator 21.0.0, SVG Export Plug-In . SVG Version: 6.00 Build 0)  -->
<svg version="1.1" id="Layer_2" xmlns="http://www.w3.org/2000/svg" xmlns:xlink="http://www.w3.org/1999/xlink" x="0px" y="0px"
	 width="350" height="350" viewBox="0 0 350 350" style="enable-background:new 0 0 350 350;" xml:space="preserve">
<g>
	<g>
		<path d="M62.3,190.1v4.1H51h-6.8v-4.1H51v-12.8h-6.8v-4.1h10.9v16.9L62.3,190.1L62.3,190.1z M55.1,169.5h-4.5v-4.1h4.5V169.5z"/>
	</g>
	<g>
		<path d="M87.1,180.6v13.6H83v-13.6c0-1.8-1.5-3.3-3.3-3.3h-1.9l-4.7,3.2v13.7H69v-21h4.1v2.3l3.4-2.3h3.2
			C83.7,173.2,87.1,176.5,87.1,180.6"/>
	</g>
	<g>
		<path d="M140.4,172.4v2.1h7.2v4.1h-7.2v15.7h-4.1v-15.8h-6.8v-4.1h6.8v-2.1c0-4.1,3.3-7.4,7.4-7.4h3.9v4.1h-3.9
			C141.9,169.1,140.4,170.5,140.4,172.4"/>
	</g>
	<g>
		<path d="M172.4,190.1v4.1h-11.3h-6.8v-4.1h6.8v-12.8h-6.8v-4.1h10.9v16.9L172.4,190.1L172.4,190.1z M165.2,169.5h-4.5v-4.1h4.5
			V169.5z"/>
	</g>
	<g>
		<path d="M197.1,180.6v13.6H193v-13.6c0-1.8-1.5-3.3-3.3-3.3h-1.9l-4.7,3.2v13.7H179v-21h4.1v2.3l3.4-2.3h3.2
			C193.7,173.2,197.1,176.5,197.1,180.6"/>
	</g>
	<g>
		<path d="M221.8,190.1v4.1h-11.3h-6.8v-4.1h6.8v-12.8h-6.8v-4.1h10.9v16.9L221.8,190.1L221.8,190.1z M214.6,169.5h-4.5v-4.1h4.5
			V169.5z"/>
	</g>
	<g>
		<path d="M272.1,177.3v9.5c0,1.9,1.4,3.3,3.3,3.3h4.3v4.1h-4.3c-4.1,0-7.4-3.3-7.4-7.4v-9.5h-6.4v-4.1h6.4v-5.4h4.1v5.4h7.6v4.1
			L272.1,177.3L272.1,177.3z"/>
	</g>
	<g>
		<path d="M304.4,181v3.2v0.5h-14v2.1c0,1.8,1.5,3.3,3.3,3.3h3.3c1.8,0,3.3-1.5,3.3-3.3v-0.4h4.1v0.4c0,4.1-3.3,7.5-7.4,7.5h-3.3
			c-4.1,0-7.4-3.4-7.4-7.5v-6.1c0-4.1,3.3-7.4,7.4-7.4h3.3c4,0,7.2,3.1,7.4,7L304.4,181L304.4,181z M300.3,180.6
			c0-1.9-1.4-3.3-3.3-3.3h-3.3c-1.9,0-3.3,1.5-3.3,3.3v0.7h9.9L300.3,180.6L300.3,180.6z"/>
	</g>
</g>
</svg>
