<svg id="Layer_1" data-name="Layer 1" xmlns="http://www.w3.org/2000/svg" width="1874.65" height="132.37" viewBox="0 0 1874.65 132.37">
  <g>
    <path d="M15.35,12.44H65.93c21.72,0,35.28,11.37,35.28,33.24S87.65,78.92,65.93,78.92H41.59v37.76H15.35ZM41.59,57.49h18.8c9,0,14.58-3.06,14.58-11.81S69.43,33.87,60.39,33.87H41.59Z" transform="translate(-15.35 -10.11)"/>
    <path d="M139.84,55.74c-8.46,0-12.54,3.21-13.27,10.35H104.71C105.44,51.8,115.64,39.7,140,39.7c21,0,32.66,8.17,32.66,31.64V105.6c0,3.93,1.46,5.54,4.37,5.54v5.54A37.06,37.06,0,0,1,163.46,119c-10.5,0-13.42-5-13.42-10.21h-.29c-4.81,5.54-13.56,10.21-23.47,10.21-15.74,0-24.49-8.89-24.49-21.43,0-14.87,10.93-21.72,28.43-25.22,9.62-1.9,19.09-3.35,19.09-9.62C149.31,58.36,146.25,55.74,139.84,55.74Zm9.47,33.67v-9a76.32,76.32,0,0,1-11.95,3.35c-9.18,2-12.24,5.83-12.24,10.5,0,6.12,3.64,8.74,9.33,8.74C144.5,103,149.31,96.56,149.31,89.41Z" transform="translate(-15.35 -10.11)"/>
    <path d="M258.21,66.24v50.44H234.88v-43c0-11.22-3.93-15-11.66-15-8.89,0-14,4.51-14,14.86v43.16H185.9V42h23.33V52.82h.29C213.45,46,220.74,39.7,234,39.7,248.44,39.7,258.21,49.18,258.21,66.24Z" transform="translate(-15.35 -10.11)"/>
    <path d="M341,42v67.35c0,24.63-14.14,33.09-36.74,33.09-23.62,0-34.55-12.25-37.17-24.2h23.32c1.46,4.08,5.1,7.43,13.27,7.43,10.49,0,14-5.54,14-17.93v-4.37h-.29A24.89,24.89,0,0,1,297,113.18c-19.09,0-31.34-15.16-31.34-36.74S277.89,39.7,297,39.7a24.92,24.92,0,0,1,20.41,9.77h.29V42Zm-23.76,34.4c0-12.1-4.67-19.24-14.15-19.24S289,64.34,289,76.44s4.67,19.24,14.14,19.24S317.25,88.54,317.25,76.44Z" transform="translate(-15.35 -10.11)"/>
    <path d="M400.63,41.31V61.72h-.29c-12-2.19-24.64,4.37-24.64,20.26v34.7H352.38V42H375.7V54.28H376c3.65-8.31,10.06-13.56,18.22-13.56A25.89,25.89,0,0,1,400.63,41.31Z" transform="translate(-15.35 -10.11)"/>
    <path d="M440.57,55.74c-8.46,0-12.54,3.21-13.27,10.35H405.44c.73-14.29,10.93-26.39,35.28-26.39,21,0,32.65,8.17,32.65,31.64V105.6c0,3.93,1.46,5.54,4.37,5.54v5.54A37.06,37.06,0,0,1,464.19,119c-10.5,0-13.42-5-13.42-10.21h-.29C445.67,114.34,436.93,119,427,119c-15.74,0-24.49-8.89-24.49-21.43,0-14.87,10.94-21.72,28.43-25.22,9.62-1.9,19.1-3.35,19.1-9.62C450.05,58.36,447,55.74,440.57,55.74Zm9.48,33.67v-9a76.5,76.5,0,0,1-12,3.35c-9.18,2-12.24,5.83-12.24,10.5,0,6.12,3.64,8.74,9.33,8.74C445.23,103,450.05,96.56,450.05,89.41Z" transform="translate(-15.35 -10.11)"/>
    <path d="M602.38,66.24v50.44H578.76v-43c0-11.22-2.33-15-10.64-15-7.43,0-12.1,4.51-12.1,14.86v43.16H532.7v-43c0-11.22-2.33-15-10.64-15-7.29,0-12.1,4.51-12.1,14.86v43.16H486.63V42H510V52.82h.29A26.64,26.64,0,0,1,533.57,39.7c9.77,0,16.62,5.4,19.54,13.12h.29c6.41-7.43,13-13.12,25.07-13.12C593.49,39.7,602.38,49.18,602.38,66.24Z" transform="translate(-15.35 -10.11)"/>
    <path d="M639.41,12.44H690c21.72,0,35.28,11.37,35.28,33.24S711.71,78.92,690,78.92H665.65v37.76H639.41Zm26.24,45.05h18.8c9,0,14.58-3.06,14.58-11.81s-5.54-11.81-14.58-11.81h-18.8Z" transform="translate(-15.35 -10.11)"/>
    <path d="M763.9,55.74c-8.46,0-12.54,3.21-13.27,10.35H728.77C729.49,51.8,739.7,39.7,764,39.7c21,0,32.66,8.17,32.66,31.64V105.6c0,3.93,1.46,5.54,4.37,5.54v5.54A37.07,37.07,0,0,1,787.51,119c-10.49,0-13.41-5-13.41-10.21h-.29C769,114.34,760.25,119,750.34,119c-15.74,0-24.49-8.89-24.49-21.43,0-14.87,10.93-21.72,28.43-25.22,9.62-1.9,19.09-3.35,19.09-9.62C773.37,58.36,770.31,55.74,763.9,55.74Zm9.47,33.67v-9a76.32,76.32,0,0,1-12,3.35c-9.18,2-12.25,5.83-12.25,10.5,0,6.12,3.65,8.74,9.33,8.74C768.56,103,773.37,96.56,773.37,89.41Z" transform="translate(-15.35 -10.11)"/>
    <path d="M882.27,66.24v50.44H858.94v-43c0-11.22-3.93-15-11.66-15-8.89,0-14,4.51-14,14.86v43.16H810V42h23.33V52.82h.29C837.51,46,844.8,39.7,858.07,39.7,872.5,39.7,882.27,49.18,882.27,66.24Z" transform="translate(-15.35 -10.11)"/>
    <path d="M965.07,42v67.35c0,24.63-14.14,33.09-36.74,33.09-23.62,0-34.55-12.25-37.17-24.2h23.32c1.46,4.08,5.1,7.43,13.27,7.43,10.49,0,14-5.54,14-17.93v-4.37h-.29A24.92,24.92,0,0,1,921,113.18c-19.1,0-31.34-15.16-31.34-36.74S901.94,39.7,921,39.7a25,25,0,0,1,20.41,9.77h.29V42ZM941.3,76.44c0-12.1-4.66-19.24-14.14-19.24S913,64.34,913,76.44s4.67,19.24,14.14,19.24S941.3,88.54,941.3,76.44Z" transform="translate(-15.35 -10.11)"/>
    <path d="M1024.69,41.31V61.72h-.3c-12-2.19-24.63,4.37-24.63,20.26v34.7H976.43V42h23.33V54.28h.29c3.64-8.31,10.06-13.56,18.22-13.56A25.92,25.92,0,0,1,1024.69,41.31Z" transform="translate(-15.35 -10.11)"/>
    <path d="M1064.63,55.74c-8.46,0-12.54,3.21-13.27,10.35H1029.5c.72-14.29,10.93-26.39,35.27-26.39,21,0,32.66,8.17,32.66,31.64V105.6c0,3.93,1.46,5.54,4.37,5.54v5.54a37.07,37.07,0,0,1-13.56,2.33c-10.49,0-13.41-5-13.41-10.21h-.29c-4.81,5.54-13.56,10.21-23.47,10.21-15.74,0-24.49-8.89-24.49-21.43,0-14.87,10.93-21.72,28.43-25.22,9.62-1.9,19.09-3.35,19.09-9.62C1074.1,58.36,1071,55.74,1064.63,55.74Zm9.47,33.67v-9a76.32,76.32,0,0,1-11.95,3.35c-9.18,2-12.25,5.83-12.25,10.5,0,6.12,3.65,8.74,9.33,8.74C1069.29,103,1074.1,96.56,1074.1,89.41Z" transform="translate(-15.35 -10.11)"/>
    <path d="M1226.44,66.24v50.44h-23.62v-43c0-11.22-2.33-15-10.64-15-7.43,0-12.1,4.51-12.1,14.86v43.16h-23.32v-43c0-11.22-2.33-15-10.64-15-7.29,0-12.1,4.51-12.1,14.86v43.16h-23.33V42H1134V52.82h.29a26.64,26.64,0,0,1,23.32-13.12c9.77,0,16.62,5.4,19.54,13.12h.29c6.41-7.43,13-13.12,25.07-13.12C1217.55,39.7,1226.44,49.18,1226.44,66.24Z" transform="translate(-15.35 -10.11)"/>
    <path d="M1235.33,45.39c0-20.26,15.31-35.28,34.69-35.28s34.7,15,34.7,35.28-15.31,35.28-34.7,35.28S1235.33,65.65,1235.33,45.39Zm63.56,0c0-16.91-12.83-29.45-28.87-29.45s-28.86,12.54-28.86,29.45c0,17.06,12.83,29.45,28.86,29.45S1298.89,62.45,1298.89,45.39Zm-41.69-19.1h15.16c7.43,0,12.39,4.08,12.39,10.64,0,5.4-2.63,8.46-6.71,9.48v.15c8.31,1.6,5.25,16.32,7.15,16.91v.29h-6.56c-1.61-1.61,2-15.16-8.9-15.16h-6.41V63.76h-6.12Zm6.12,16.77h6.41c3.94,0,8.75.14,8.75-5.54,0-5.83-4.81-5.54-8.75-5.54h-6.41Z" transform="translate(-15.35 -10.11)"/>
    <path d="M1412.88,56.76V78.19h-41.83v38.49h-26.24V12.44h77.55V33.87h-51.31V56.76Z" transform="translate(-15.35 -10.11)"/>
    <path d="M1461.13,119c-24.92,0-39.94-16.48-39.94-39.65s15-39.66,39.94-39.66,39.8,16.48,39.8,39.66S1485.92,119,1461.13,119Zm0-17.5c10.21,0,16.48-7.72,16.48-22.15s-6.27-22.16-16.48-22.16-16.62,7.72-16.62,22.16S1450.78,101.51,1461.13,101.51Z" transform="translate(-15.35 -10.11)"/>
    <path d="M1580.67,42v74.64h-23.33V105.89h-.29c-3.93,6.85-11.22,13.12-24.49,13.12-14.43,0-24.2-9.48-24.2-26.53V42h23.33V85c0,11.23,3.93,15,11.66,15,8.89,0,14-4.52,14-14.87V42Z" transform="translate(-15.35 -10.11)"/>
    <path d="M1664.34,66.24v50.44H1641v-43c0-11.22-3.94-15-11.66-15-8.89,0-14,4.51-14,14.86v43.16H1592V42h23.32V52.82h.29c3.94-6.85,11.23-13.12,24.49-13.12C1654.58,39.7,1664.34,49.18,1664.34,66.24Z" transform="translate(-15.35 -10.11)"/>
    <path d="M1749.48,12.44V116.68h-23.33v-7.44h-.29c-2.92,3.94-10.79,9.77-21.58,9.77-19.82,0-32.5-15.16-32.5-39.65s12.68-39.66,32.5-39.66c10.79,0,18.66,5.84,21.58,9.77h.29v-37Zm-23.77,66.92c0-14.58-5.83-22.16-15.3-22.16s-15.31,7.58-15.31,22.16,5.83,22.15,15.31,22.15S1725.71,93.93,1725.71,79.36Z" transform="translate(-15.35 -10.11)"/>
    <path d="M1809.1,41.31V61.72h-.29c-12-2.19-24.64,4.37-24.64,20.26v34.7h-23.32V42h23.32V54.28h.29c3.64-8.31,10.06-13.56,18.22-13.56A25.92,25.92,0,0,1,1809.1,41.31Z" transform="translate(-15.35 -10.11)"/>
    <path d="M1864.64,118.13c-6.42,19.1-13.42,24.35-29.16,24.35a62,62,0,0,1-13-1.46V123.53h.29c6.41,1.45,11.66.73,14.14-3.06,2.18-3.36,1.75-8-.59-14.58L1812,42h23.32l16.91,49h.3l14.14-49H1890Z" transform="translate(-15.35 -10.11)"/>
  </g>
</svg>
