<?xml version="1.0" encoding="utf-8"?>
<!-- Generator: Adobe Illustrator 21.0.0, SVG Export Plug-In . SVG Version: 6.00 Build 0)  -->
<svg version="1.1" xmlns="http://www.w3.org/2000/svg" xmlns:xlink="http://www.w3.org/1999/xlink" x="0px" y="0px"
	 width="350" height="350" viewBox="0 0 350 350" style="enable-background:new 0 0 350 350;" xml:space="preserve">
<style type="text/css">
	.st0{display:none;}
	.st1{display:inline;}
</style>
<g id="img" class="st0">
	<g class="st1">
		<path d="M125.5,214.8c-20-24.9-18.4-61.5,4.7-84.6c24.8-24.8,65.1-24.8,89.8,0c24.8,24.8,24.8,65.1,0,89.8
			c-3.7,3.7-7.7,6.8-12,9.4l2.3,3.9c4.6-2.8,8.9-6.1,12.9-10.1c26.5-26.5,26.5-69.7,0-96.2c-26.5-26.5-69.7-26.5-96.2,0
			c-24.8,24.8-26.4,64.2-4.8,90.9L125.5,214.8z"/>
	</g>
</g>
<g id="Layer_4">
	<path d="M249.1,182.4c-3.8,37.4-35.4,66.7-73.8,66.7c-40.9,0-74.1-33.3-74.1-74.1c0-40.9,33.3-74.1,74.1-74.1
		c5.6,0,11.1,0.6,16.3,1.8l1-4.6c-5.6-1.3-11.4-1.9-17.3-1.9c-43.5,0-78.9,35.4-78.9,78.9c0,43.5,35.4,78.9,78.9,78.9
		c40.9,0,74.6-31.3,78.5-71.1L249.1,182.4z"/>
</g>
<g id="text" class="st0">
</g>
<g id="Guides" class="st0">
</g>
</svg>
