<?xml version="1.0" encoding="utf-8"?>
<!-- Generator: Adobe Illustrator 21.0.0, SVG Export Plug-In . SVG Version: 6.00 Build 0)  -->
<svg version="1.1" xmlns="http://www.w3.org/2000/svg" xmlns:xlink="http://www.w3.org/1999/xlink" x="0px" y="0px"
	 width="350" height="350" viewBox="0 0 350 350" style="enable-background:new 0 0 350 350;" xml:space="preserve">
<style type="text/css">
	.st0{display:none;}
	.st1{display:inline;}
</style>
<g id="img" class="st0">
	<g class="st1">
		<path d="M249.1,182.4c-3.8,37.4-35.4,66.7-73.8,66.7c-40.9,0-74.1-33.3-74.1-74.1c0-40.9,33.3-74.1,74.1-74.1
			c5.6,0,11.1,0.6,16.3,1.8l1-4.6c-5.6-1.3-11.4-1.9-17.3-1.9c-43.5,0-78.9,35.4-78.9,78.9c0,43.5,35.4,78.9,78.9,78.9
			c40.9,0,74.6-31.3,78.5-71.1L249.1,182.4z"/>
		<path d="M125.5,214.8c-20-24.9-18.4-61.5,4.7-84.6c24.8-24.8,65.1-24.8,89.8,0c24.8,24.8,24.8,65.1,0,89.8
			c-3.7,3.7-7.7,6.8-12,9.4l2.3,3.9c4.6-2.8,8.9-6.1,12.9-10.1c26.5-26.5,26.5-69.7,0-96.2c-26.5-26.5-69.7-26.5-96.2,0
			c-24.8,24.8-26.4,64.2-4.8,90.9L125.5,214.8z"/>
	</g>
</g>
<g id="text">
	<path d="M274.1,175.5v9.2c0,1.8,1.4,3.2,3.2,3.2h4.2v4h-4.2c-4,0-7.2-3.2-7.2-7.2v-9.2h-6.2v-4h6.2v-5.2h4v5.2h7.4v4H274.1z"/>
	<path d="M305.5,179.1v3.1v0.4h-13.6v2c0,1.8,1.4,3.2,3.2,3.2h3.2c1.8,0,3.2-1.4,3.2-3.2v-0.4h4v0.4c0,4-3.2,7.2-7.2,7.2h-3.2
		c-4,0-7.2-3.3-7.2-7.2v-6c0-4,3.2-7.2,7.2-7.2h3.2c3.9,0,7,3,7.2,6.8V179.1z M301.5,178.7c0-1.8-1.4-3.2-3.2-3.2h-3.2
		c-1.8,0-3.2,1.4-3.2,3.2v0.7h9.6V178.7z"/>
	<path d="M62.1,187.9v4h-11h-6.6v-4h6.6v-12.4h-6.6v-4h10.6v16.4H62.1z M55.1,167.9h-4.4v-4h4.4V167.9z"/>
	<path d="M86.1,178.7v13.2h-4v-13.2c0-1.8-1.4-3.2-3.2-3.2h-1.8l-4.6,3.1v13.3h-4v-20.4h4v2.2l3.3-2.2h3.1
		C82.9,171.5,86.1,174.7,86.1,178.7"/>
	<rect x="160.3" y="163.9" width="4.4" height="4"/>
	<path d="M147.7,167.5h-3.8c-1.8,0-3.2,1.4-3.2,3.2v2h7v4h-7v15.2h-4v-15.2h-6.6v-4h6.6v-2c0-4,3.2-7.2,7.2-7.2h3.8V167.5z"/>
	<polygon points="171.7,191.9 160.7,191.9 154.1,191.9 154.1,187.9 160.7,187.9 160.7,175.5 154.1,175.5 154.1,171.5 164.7,171.5 
		164.7,187.9 171.7,187.9 	"/>
	<rect x="208.3" y="163.9" width="4.4" height="4"/>
	<path d="M195.7,191.9h-4v-13.2c0-1.8-1.4-3.2-3.2-3.2h-1.8l-4.6,3.1v13.3h-4v-20.4h4v2.2l3.3-2.2h3.1c4,0,7.2,3.2,7.2,7.2V191.9z"
		/>
	<polygon points="219.7,191.9 208.7,191.9 202.1,191.9 202.1,187.9 208.7,187.9 208.7,175.5 202.1,175.5 202.1,171.5 212.7,171.5 
		212.7,187.9 219.7,187.9 	"/>
</g>
<g id="Guides" class="st0">
</g>
</svg>
