<?xml version="1.0" encoding="utf-8"?>
<!-- Generator: Adobe Illustrator 21.0.0, SVG Export Plug-In . SVG Version: 6.00 Build 0)  -->
<svg version="1.1" xmlns="http://www.w3.org/2000/svg" xmlns:xlink="http://www.w3.org/1999/xlink" x="0px" y="0px"
	 viewBox="0 0 350 350" style="enable-background:new 0 0 350 350;" xml:space="preserve">
<style type="text/css">
	.st0{display:none;}
	.st1{display:inline;}
	.st2{fill:#58595B;}
</style>
<g id="img" class="st0">
	<g class="st1">
		<path class="st2" d="M235,222.5c-1.5,1.9-3.1,3.7-4.8,5.5"/>
		<path d="M231.6,229.3l-2.8-2.7c1.6-1.7,3.2-3.5,4.7-5.3l3,2.4C235,225.6,233.3,227.5,231.6,229.3"/>
		<path class="st2" d="M242.5,210.9c-1.1,2.1-2.4,4.2-3.7,6.3"/>
		<path d="M240.4,218.3l-3.2-2.1c1.3-2,2.5-4,3.6-6.1l3.4,1.8C243.1,214,241.8,216.2,240.4,218.3"/>
		<path class="st2" d="M248.2,197.2c-0.7,2.3-1.5,4.6-2.5,6.9"/>
		<path d="M247.5,204.9l-3.6-1.5c0.9-2.2,1.7-4.5,2.4-6.7l3.7,1.1C249.3,200.2,248.5,202.6,247.5,204.9"/>
		<path class="st2" d="M251.2,180.9c-0.2,2.5-0.5,5-0.9,7.4"/>
		<path d="M252.2,188.7l-3.8-0.7c0.4-2.4,0.7-4.8,0.9-7.2l3.9,0.3C253,183.6,252.6,186.2,252.2,188.7"/>
		<path class="st2" d="M251,166.7c0.2,2.3,0.4,4.5,0.4,6.8"/>
		<path d="M249.5,173.6c0-2.2-0.2-4.4-0.4-6.6l3.8-0.4c0.2,2.3,0.4,4.6,0.4,7L249.5,173.6z"/>
		<path class="st2" d="M248.1,152.6c0.7,2.2,1.3,4.5,1.7,6.8"/>
		<path d="M248,159.8c-0.5-2.2-1-4.5-1.7-6.6l3.7-1.1c0.7,2.3,1.3,4.6,1.8,7L248,159.8z"/>
		<path class="st2" d="M242,138c1.2,2.2,2.3,4.5,3.3,6.8"/>
		<path d="M243.6,145.6c-1-2.3-2.1-4.5-3.3-6.7l3.4-1.9c1.3,2.3,2.4,4.6,3.4,7L243.6,145.6z"/>
		<path class="st2" d="M237.2,130.4c1.8,2.5,3.4,5,4.8,7.6"/>
		<path d="M240.3,138.9c-1.4-2.6-3-5.1-4.7-7.4l3.1-2.3c1.8,2.5,3.4,5.1,4.9,7.8L240.3,138.9z"/>
		<path class="st2" d="M231.8,123.7c0.4,0.4,0.8,0.9,1.2,1.4c1.5,1.7,2.9,3.5,4.2,5.4"/>
		<path d="M235.6,131.5c-1.3-1.8-2.7-3.5-4.1-5.2c-0.4-0.4-0.8-0.9-1.2-1.3l2.9-2.6c0.4,0.5,0.8,0.9,1.2,1.4c1.5,1.8,3,3.6,4.3,5.5
			L235.6,131.5z"/>
		<path class="st2" d="M225.8,117.7c2.1,1.9,4.1,3.9,6,6"/>
		<path d="M230.4,125c-1.8-2.1-3.8-4-5.9-5.8l2.6-2.9c2.2,1.9,4.2,4,6.2,6.1L230.4,125z"/>
		<path class="st2" d="M219.9,112.9c2,1.5,4,3.1,5.9,4.8"/>
		<path d="M224.5,119.1c-1.8-1.6-3.8-3.2-5.7-4.6l2.3-3.1c2.1,1.5,4.1,3.2,6,4.9L224.5,119.1z"/>
		<path class="st2" d="M212.3,108c2.6,1.5,5.2,3.1,7.6,4.9"/>
		<path d="M218.7,114.5c-2.4-1.7-4.9-3.3-7.4-4.8l1.9-3.4c2.7,1.5,5.3,3.2,7.8,5L218.7,114.5z"/>
		<path class="st2" d="M204.8,104.4c2.5,1.1,5,2.3,7.5,3.7"/>
		<path d="M211.3,109.7c-2.3-1.3-4.8-2.5-7.3-3.6l1.5-3.6c2.6,1.1,5.2,2.4,7.7,3.8L211.3,109.7z"/>
		<path class="st2" d="M197.1,101.6c2.6,0.8,5.2,1.7,7.7,2.8"/>
		<path d="M204,106.2c-2.4-1-5-2-7.5-2.7l1.1-3.7c2.7,0.8,5.3,1.8,7.9,2.9L204,106.2z"/>
		<path class="st2" d="M180.9,98.5c2.6,0.2,5.3,0.6,7.9,1"/>
		<path d="M188.5,101.5c-2.5-0.5-5.1-0.8-7.7-1l0.3-3.9c2.7,0.2,5.4,0.6,8.1,1.1L188.5,101.5z"/>
		<path class="st2" d="M167.5,98.6c2.2-0.2,4.4-0.3,6.6-0.3"/>
		<path d="M167.6,100.5l-0.4-3.9c2.2-0.2,4.5-0.3,6.7-0.4l0,3.9C171.9,100.2,169.8,100.3,167.6,100.5"/>
		<path class="st2" d="M152.8,101.5c2.3-0.7,4.7-1.3,7.1-1.7"/>
		<path d="M153.4,103.3l-1.1-3.7c2.4-0.7,4.8-1.3,7.3-1.8l0.7,3.8C158,102.1,155.6,102.7,153.4,103.3"/>
		<path class="st2" d="M139.8,106.7c2.2-1.1,4.5-2.2,6.8-3.1"/>
		<path d="M140.7,108.4l-1.8-3.4c2.3-1.2,4.6-2.2,6.9-3.1l1.4,3.6C145,106.3,142.8,107.3,140.7,108.4"/>
		<path class="st2" d="M125.7,116c2-1.7,4.1-3.2,6.2-4.7"/>
		<path d="M127,117.5l-2.5-3c2-1.7,4.2-3.3,6.4-4.8l2.2,3.2C130.9,114.4,128.9,115.9,127,117.5"/>
		<path class="st2" d="M116,125.7c1.5-1.7,3-3.4,4.7-5.1"/>
		<path d="M117.4,127l-3-2.5c1.5-1.8,3.1-3.5,4.8-5.2l2.7,2.7C120.4,123.6,118.9,125.3,117.4,127"/>
		<path class="st2" d="M107.5,138.1c1.2-2.2,2.5-4.4,4-6.5"/>
		<path d="M109.2,139l-3.4-1.9c1.2-2.3,2.6-4.5,4.1-6.6l3.2,2.2C111.7,134.8,110.4,136.9,109.2,139"/>
		<path class="st2" d="M101.6,151.8c0.8-2.5,1.7-4.9,2.7-7.3"/>
		<path d="M103.5,152.4l-3.7-1.2c0.8-2.5,1.7-5.1,2.8-7.5l3.6,1.5C105.1,147.6,104.2,150,103.5,152.4"/>
		<path class="st2" d="M98.4,168c0.2-2.7,0.6-5.4,1.2-8.1"/>
		<path d="M100.3,168.2l-3.9-0.4c0.3-2.8,0.7-5.6,1.2-8.3l3.8,0.8C101,162.9,100.6,165.6,100.3,168.2"/>
		<path class="st2" d="M98.4,182.1c-0.2-2.4-0.3-4.8-0.3-7.2"/>
		<path d="M96.5,182.3c-0.2-2.5-0.3-4.9-0.3-7.4l3.9,0c0,2.4,0.1,4.7,0.3,7.1L96.5,182.3z"/>
		<path class="st2" d="M101,196.1c-0.6-2.3-1.2-4.5-1.6-6.8"/>
		<path d="M99.2,196.7c-0.7-2.3-1.2-4.7-1.7-7l3.8-0.7c0.4,2.2,1,4.5,1.6,6.6L99.2,196.7z"/>
		<path class="st2" d="M106.5,209.8c-1.2-2.3-2.2-4.6-3.1-7"/>
		<path d="M104.7,210.7c-1.2-2.3-2.3-4.7-3.2-7.2l3.6-1.4c0.9,2.3,1.9,4.6,3.1,6.8L104.7,210.7z"/>
		<path class="st2" d="M115.4,223.5c-1.6-2-3.1-4.1-4.5-6.2"/>
		<path d="M113.9,224.7c-1.7-2-3.2-4.2-4.7-6.3l3.2-2.1c1.4,2.1,2.9,4.1,4.4,6L113.9,224.7z"/>
		<path class="st2" d="M125.3,233.6c-1.9-1.6-3.8-3.3-5.5-5.2"/>
		<path d="M124,235c-2-1.7-3.9-3.4-5.7-5.3l2.8-2.7c1.7,1.8,3.5,3.5,5.4,5L124,235z"/>
		<path class="st2" d="M138.1,242.3c-2.3-1.2-4.5-2.6-6.7-4.1"/>
		<path d="M137.1,244c-2.4-1.3-4.7-2.7-6.9-4.2l2.2-3.2c2.1,1.4,4.3,2.8,6.5,4L137.1,244z"/>
		<path class="st2" d="M152.2,248.3c-2.5-0.8-4.9-1.7-7.4-2.7"/>
		<path d="M151.6,250.1c-2.6-0.8-5.1-1.7-7.5-2.7l1.5-3.6c2.3,1,4.7,1.9,7.2,2.6L151.6,250.1z"/>
		<path class="st2" d="M168.9,251.4c-2.5-0.2-5-0.5-7.5-1"/>
		<path d="M168.8,253.4c-2.6-0.2-5.2-0.5-7.7-1l0.7-3.8c2.4,0.4,4.9,0.7,7.4,0.9L168.8,253.4z"/>
		<path class="st2" d="M183.9,251.1c-2.6,0.3-5.2,0.5-7.8,0.5"/>
		<path d="M176.1,253.6l-0.1-3.9c2.5,0,5.1-0.2,7.6-0.5l0.5,3.8C181.5,253.4,178.8,253.5,176.1,253.6"/>
		<path class="st2" d="M197.1,248.4c-2.4,0.7-4.8,1.3-7.3,1.8"/>
		<path d="M190.2,252.1l-0.8-3.8c2.4-0.5,4.8-1.1,7.1-1.8l1.1,3.7C195.3,250.9,192.7,251.6,190.2,252.1"/>
		<path class="st2" d="M211,242.6c-2.2,1.2-4.5,2.3-6.8,3.2"/>
		<path d="M205,247.6l-1.5-3.6c2.2-0.9,4.5-2,6.6-3.1l1.8,3.4C209.6,245.5,207.3,246.6,205,247.6"/>
		<path class="st2" d="M224.7,233.2c-1.9,1.6-3.8,3.1-5.8,4.5"/>
		<path d="M220.1,239.3l-2.2-3.2c1.9-1.4,3.8-2.8,5.6-4.4l2.5,2.9C224.1,236.3,222.1,237.8,220.1,239.3"/>
	</g>
	<g class="st1">
		<path class="st2" d="M235,222.5c-1.5,1.9-3.1,3.7-4.8,5.5"/>
		<path d="M231.6,229.3l-2.8-2.7c1.6-1.7,3.2-3.5,4.7-5.3l3,2.4C235,225.6,233.3,227.5,231.6,229.3"/>
		<path class="st2" d="M242.5,210.9c-1.1,2.1-2.4,4.2-3.7,6.3"/>
		<path d="M240.4,218.3l-3.2-2.1c1.3-2,2.5-4,3.6-6.1l3.4,1.8C243.1,214,241.8,216.2,240.4,218.3"/>
		<path class="st2" d="M248.2,197.2c-0.7,2.3-1.5,4.6-2.5,6.9"/>
		<path d="M247.5,204.9l-3.6-1.5c0.9-2.2,1.7-4.5,2.4-6.7l3.7,1.1C249.3,200.2,248.5,202.6,247.5,204.9"/>
		<path class="st2" d="M251.2,180.9c-0.2,2.5-0.5,5-0.9,7.4"/>
		<path d="M252.2,188.7l-3.8-0.7c0.4-2.4,0.7-4.8,0.9-7.2l3.9,0.3C253,183.6,252.6,186.2,252.2,188.7"/>
		<path class="st2" d="M251,166.7c0.2,2.3,0.4,4.5,0.4,6.8"/>
		<path d="M249.5,173.6c0-2.2-0.2-4.4-0.4-6.6l3.8-0.4c0.2,2.3,0.4,4.6,0.4,7L249.5,173.6z"/>
		<path class="st2" d="M248.1,152.6c0.7,2.2,1.3,4.5,1.7,6.8"/>
		<path d="M248,159.8c-0.5-2.2-1-4.5-1.7-6.6l3.7-1.1c0.7,2.3,1.3,4.6,1.8,7L248,159.8z"/>
		<path class="st2" d="M242,138c1.2,2.2,2.3,4.5,3.3,6.8"/>
		<path d="M243.6,145.6c-1-2.3-2.1-4.5-3.3-6.7l3.4-1.9c1.3,2.3,2.4,4.6,3.4,7L243.6,145.6z"/>
		<path class="st2" d="M237.2,130.4c1.8,2.5,3.4,5,4.8,7.6"/>
		<path d="M240.3,138.9c-1.4-2.6-3-5.1-4.7-7.4l3.1-2.3c1.8,2.5,3.4,5.1,4.9,7.8L240.3,138.9z"/>
		<path class="st2" d="M231.8,123.7c0.4,0.4,0.8,0.9,1.2,1.4c1.5,1.7,2.9,3.5,4.2,5.4"/>
		<path d="M235.6,131.5c-1.3-1.8-2.7-3.5-4.1-5.2c-0.4-0.4-0.8-0.9-1.2-1.3l2.9-2.6c0.4,0.5,0.8,0.9,1.2,1.4c1.5,1.8,3,3.6,4.3,5.5
			L235.6,131.5z"/>
		<path class="st2" d="M225.8,117.7c2.1,1.9,4.1,3.9,6,6"/>
		<path d="M230.4,125c-1.8-2.1-3.8-4-5.9-5.8l2.6-2.9c2.2,1.9,4.2,4,6.2,6.1L230.4,125z"/>
		<path class="st2" d="M219.9,112.9c2,1.5,4,3.1,5.9,4.8"/>
		<path d="M224.5,119.1c-1.8-1.6-3.8-3.2-5.7-4.6l2.3-3.1c2.1,1.5,4.1,3.2,6,4.9L224.5,119.1z"/>
		<path class="st2" d="M212.3,108c2.6,1.5,5.2,3.1,7.6,4.9"/>
		<path d="M218.7,114.5c-2.4-1.7-4.9-3.3-7.4-4.8l1.9-3.4c2.7,1.5,5.3,3.2,7.8,5L218.7,114.5z"/>
		<path class="st2" d="M204.8,104.4c2.5,1.1,5,2.3,7.5,3.7"/>
		<path d="M211.3,109.7c-2.3-1.3-4.8-2.5-7.3-3.6l1.5-3.6c2.6,1.1,5.2,2.4,7.7,3.8L211.3,109.7z"/>
		<path class="st2" d="M197.1,101.6c2.6,0.8,5.2,1.7,7.7,2.8"/>
		<path d="M204,106.2c-2.4-1-5-2-7.5-2.7l1.1-3.7c2.7,0.8,5.3,1.8,7.9,2.9L204,106.2z"/>
		<path class="st2" d="M180.9,98.5c2.6,0.2,5.3,0.6,7.9,1"/>
		<path d="M188.5,101.5c-2.5-0.5-5.1-0.8-7.7-1l0.3-3.9c2.7,0.2,5.4,0.6,8.1,1.1L188.5,101.5z"/>
		<path class="st2" d="M167.5,98.6c2.2-0.2,4.4-0.3,6.6-0.3"/>
		<path d="M167.6,100.5l-0.4-3.9c2.2-0.2,4.5-0.3,6.7-0.4l0,3.9C171.9,100.2,169.8,100.3,167.6,100.5"/>
		<path class="st2" d="M152.8,101.5c2.3-0.7,4.7-1.3,7.1-1.7"/>
		<path d="M153.4,103.3l-1.1-3.7c2.4-0.7,4.8-1.3,7.3-1.8l0.7,3.8C158,102.1,155.6,102.7,153.4,103.3"/>
		<path class="st2" d="M139.8,106.7c2.2-1.1,4.5-2.2,6.8-3.1"/>
		<path d="M140.7,108.4l-1.8-3.4c2.3-1.2,4.6-2.2,6.9-3.1l1.4,3.6C145,106.3,142.8,107.3,140.7,108.4"/>
		<path class="st2" d="M125.7,116c2-1.7,4.1-3.2,6.2-4.7"/>
		<path d="M127,117.5l-2.5-3c2-1.7,4.2-3.3,6.4-4.8l2.2,3.2C130.9,114.4,128.9,115.9,127,117.5"/>
		<path class="st2" d="M116,125.7c1.5-1.7,3-3.4,4.7-5.1"/>
		<path d="M117.4,127l-3-2.5c1.5-1.8,3.1-3.5,4.8-5.2l2.7,2.7C120.4,123.6,118.9,125.3,117.4,127"/>
		<path class="st2" d="M107.5,138.1c1.2-2.2,2.5-4.4,4-6.5"/>
		<path d="M109.2,139l-3.4-1.9c1.2-2.3,2.6-4.5,4.1-6.6l3.2,2.2C111.7,134.8,110.4,136.9,109.2,139"/>
		<path class="st2" d="M101.6,151.8c0.8-2.5,1.7-4.9,2.7-7.3"/>
		<path d="M103.5,152.4l-3.7-1.2c0.8-2.5,1.7-5.1,2.8-7.5l3.6,1.5C105.1,147.6,104.2,150,103.5,152.4"/>
		<path class="st2" d="M98.4,168c0.2-2.7,0.6-5.4,1.2-8.1"/>
		<path d="M100.3,168.2l-3.9-0.4c0.3-2.8,0.7-5.6,1.2-8.3l3.8,0.8C101,162.9,100.6,165.6,100.3,168.2"/>
		<path class="st2" d="M98.4,182.1c-0.2-2.4-0.3-4.8-0.3-7.2"/>
		<path d="M96.5,182.3c-0.2-2.5-0.3-4.9-0.3-7.4l3.9,0c0,2.4,0.1,4.7,0.3,7.1L96.5,182.3z"/>
		<path class="st2" d="M101,196.1c-0.6-2.3-1.2-4.5-1.6-6.8"/>
		<path d="M99.2,196.7c-0.7-2.3-1.2-4.7-1.7-7l3.8-0.7c0.4,2.2,1,4.5,1.6,6.6L99.2,196.7z"/>
		<path class="st2" d="M106.5,209.8c-1.2-2.3-2.2-4.6-3.1-7"/>
		<path d="M104.7,210.7c-1.2-2.3-2.3-4.7-3.2-7.2l3.6-1.4c0.9,2.3,1.9,4.6,3.1,6.8L104.7,210.7z"/>
		<path class="st2" d="M115.4,223.5c-1.6-2-3.1-4.1-4.5-6.2"/>
		<path d="M113.9,224.7c-1.7-2-3.2-4.2-4.7-6.3l3.2-2.1c1.4,2.1,2.9,4.1,4.4,6L113.9,224.7z"/>
		<path class="st2" d="M125.3,233.6c-1.9-1.6-3.8-3.3-5.5-5.2"/>
		<path d="M124,235c-2-1.7-3.9-3.4-5.7-5.3l2.8-2.7c1.7,1.8,3.5,3.5,5.4,5L124,235z"/>
		<path class="st2" d="M138.1,242.3c-2.3-1.2-4.5-2.6-6.7-4.1"/>
		<path d="M137.1,244c-2.4-1.3-4.7-2.7-6.9-4.2l2.2-3.2c2.1,1.4,4.3,2.8,6.5,4L137.1,244z"/>
		<path class="st2" d="M152.2,248.3c-2.5-0.8-4.9-1.7-7.4-2.7"/>
		<path d="M151.6,250.1c-2.6-0.8-5.1-1.7-7.5-2.7l1.5-3.6c2.3,1,4.7,1.9,7.2,2.6L151.6,250.1z"/>
		<path class="st2" d="M168.9,251.4c-2.5-0.2-5-0.5-7.5-1"/>
		<path d="M168.8,253.4c-2.6-0.2-5.2-0.5-7.7-1l0.7-3.8c2.4,0.4,4.9,0.7,7.4,0.9L168.8,253.4z"/>
		<path class="st2" d="M183.9,251.1c-2.6,0.3-5.2,0.5-7.8,0.5"/>
		<path d="M176.1,253.6l-0.1-3.9c2.5,0,5.1-0.2,7.6-0.5l0.5,3.8C181.5,253.4,178.8,253.5,176.1,253.6"/>
		<path class="st2" d="M197.1,248.4c-2.4,0.7-4.8,1.3-7.3,1.8"/>
		<path d="M190.2,252.1l-0.8-3.8c2.4-0.5,4.8-1.1,7.1-1.8l1.1,3.7C195.3,250.9,192.7,251.6,190.2,252.1"/>
		<path class="st2" d="M211,242.6c-2.2,1.2-4.5,2.3-6.8,3.2"/>
		<path d="M205,247.6l-1.5-3.6c2.2-0.9,4.5-2,6.6-3.1l1.8,3.4C209.6,245.5,207.3,246.6,205,247.6"/>
		<path class="st2" d="M224.7,233.2c-1.9,1.6-3.8,3.1-5.8,4.5"/>
		<path d="M220.1,239.3l-2.2-3.2c1.9-1.4,3.8-2.8,5.6-4.4l2.5,2.9C224.1,236.3,222.1,237.8,220.1,239.3"/>
	</g>
</g>
<g id="text">
	<path d="M274.1,175.5v9.2c0,1.8,1.4,3.2,3.2,3.2h4.2v4h-4.2c-4,0-7.2-3.2-7.2-7.2v-9.2h-6.2v-4h6.2v-5.2h4v5.2h7.4v4H274.1z"/>
	<path d="M305.5,179.1v3.1v0.4h-13.6v2c0,1.8,1.4,3.2,3.2,3.2h3.2c1.8,0,3.2-1.4,3.2-3.2v-0.4h4v0.4c0,4-3.2,7.2-7.2,7.2h-3.2
		c-4,0-7.2-3.3-7.2-7.2v-6c0-4,3.2-7.2,7.2-7.2h3.2c3.9,0,7,3,7.2,6.8V179.1z M301.5,178.7c0-1.8-1.4-3.2-3.2-3.2h-3.2
		c-1.8,0-3.2,1.4-3.2,3.2v0.7h9.6V178.7z"/>
	<path d="M62.1,187.9v4h-11h-6.6v-4h6.6v-12.4h-6.6v-4h10.6v16.4H62.1z M55.1,167.9h-4.4v-4h4.4V167.9z"/>
	<path d="M86.1,178.7v13.2h-4v-13.2c0-1.8-1.4-3.2-3.2-3.2h-1.8l-4.6,3.1v13.3h-4v-20.4h4v2.2l3.3-2.2h3.1
		C82.9,171.5,86.1,174.7,86.1,178.7"/>
	<rect x="160.3" y="163.9" width="4.4" height="4"/>
	<path d="M147.7,167.5h-3.8c-1.8,0-3.2,1.4-3.2,3.2v2h7v4h-7v15.2h-4v-15.2h-6.6v-4h6.6v-2c0-4,3.2-7.2,7.2-7.2h3.8V167.5z"/>
	<polygon points="171.7,191.9 160.7,191.9 154.1,191.9 154.1,187.9 160.7,187.9 160.7,175.5 154.1,175.5 154.1,171.5 164.7,171.5 
		164.7,187.9 171.7,187.9 	"/>
	<rect x="208.3" y="163.9" width="4.4" height="4"/>
	<path d="M195.7,191.9h-4v-13.2c0-1.8-1.4-3.2-3.2-3.2h-1.8l-4.6,3.1v13.3h-4v-20.4h4v2.2l3.3-2.2h3.1c4,0,7.2,3.2,7.2,7.2V191.9z"
		/>
	<polygon points="219.7,191.9 208.7,191.9 202.1,191.9 202.1,187.9 208.7,187.9 208.7,175.5 202.1,175.5 202.1,171.5 212.7,171.5 
		212.7,187.9 219.7,187.9 	"/>
</g>
<g id="Guides" class="st0">
</g>
</svg>
