<?xml version="1.0" encoding="utf-8"?>
<!-- Generator: Adobe Illustrator 21.0.0, SVG Export Plug-In . SVG Version: 6.00 Build 0)  -->
<svg version="1.1" id="Layer_1" xmlns="http://www.w3.org/2000/svg" xmlns:xlink="http://www.w3.org/1999/xlink" x="0px" y="0px"
	 viewBox="0 0 350 350" style="enable-background:new 0 0 350 350;" xml:space="preserve">
<style type="text/css">
	.st0{display:none;}
	.st1{display:inline;}
	.st2{fill:#231F20;}
</style>
<g id="Layer_2" class="st0">
	<g class="st1">
		<g>
			<path d="M65.5,195.6v4.1H54.2h-6.8v-4.1h6.8v-12.8h-6.8v-4.1h10.9v16.9L65.5,195.6L65.5,195.6z M58.3,175h-4.5v-4.1h4.5V175z"/>
		</g>
		<g>
			<path d="M90.3,186.1v13.6h-4.1v-13.6c0-1.8-1.5-3.3-3.3-3.3H81l-4.7,3.2v13.7h-4.1v-21h4.1v2.3l3.4-2.3h3.2
				C86.9,178.7,90.3,182,90.3,186.1"/>
		</g>
		<g>
			<path d="M143.6,177.9v2.1h7.2v4.1h-7.2v15.7h-4.1V184h-6.8v-4.1h6.8v-2.1c0-4.1,3.3-7.4,7.4-7.4h3.9v4.1h-3.9
				C145.1,174.6,143.6,176,143.6,177.9"/>
		</g>
		<g>
			<path d="M175.6,195.6v4.1h-11.3h-6.8v-4.1h6.8v-12.8h-6.8v-4.1h10.9v16.9L175.6,195.6L175.6,195.6z M168.4,175h-4.5v-4.1h4.5V175
				z"/>
		</g>
		<g>
			<path d="M200.3,186.1v13.6h-4.1v-13.6c0-1.8-1.5-3.3-3.3-3.3H191l-4.7,3.2v13.7h-4.1v-21h4.1v2.3l3.4-2.3h3.2
				C196.9,178.7,200.3,182,200.3,186.1"/>
		</g>
		<g>
			<path d="M225,195.6v4.1h-11.3h-6.8v-4.1h6.8v-12.8h-6.8v-4.1h10.9v16.9L225,195.6L225,195.6z M217.8,175h-4.5v-4.1h4.5V175z"/>
		</g>
		<g>
			<path d="M275.3,182.8v9.5c0,1.9,1.4,3.3,3.3,3.3h4.3v4.1h-4.3c-4.1,0-7.4-3.3-7.4-7.4v-9.5h-6.4v-4.1h6.4v-5.4h4.1v5.4h7.6v4.1
				L275.3,182.8L275.3,182.8z"/>
		</g>
		<g>
			<path d="M307.6,186.5v3.2v0.5h-14v2.1c0,1.8,1.5,3.3,3.3,3.3h3.3c1.8,0,3.3-1.5,3.3-3.3v-0.4h4.1v0.4c0,4.1-3.3,7.5-7.4,7.5h-3.3
				c-4.1,0-7.4-3.4-7.4-7.5v-6.1c0-4.1,3.3-7.4,7.4-7.4h3.3c4,0,7.2,3.1,7.4,7L307.6,186.5L307.6,186.5z M303.5,186.1
				c0-1.9-1.4-3.3-3.3-3.3h-3.3c-1.9,0-3.3,1.5-3.3,3.3v0.7h9.9L303.5,186.1L303.5,186.1z"/>
		</g>
	</g>
</g>
<g>
	<path class="st2" d="M248.5,139.3c0,3.2-2.6,5.8-5.8,5.8s-5.8-2.6-5.8-5.8s2.6-5.8,5.8-5.8S248.5,136.1,248.5,139.3"/>
</g>
<g>
	<path class="st2" d="M200.6,249.8c0,3.2-2.6,5.8-5.8,5.8s-5.8-2.6-5.8-5.8s2.6-5.8,5.8-5.8S200.6,246.6,200.6,249.8"/>
</g>
<g>
	<path class="st2" d="M181.1,252.3c0,3.2-2.6,5.8-5.8,5.8s-5.8-2.6-5.8-5.8s2.6-5.8,5.8-5.8S181.1,249.1,181.1,252.3"/>
</g>
<g>
	<path class="st2" d="M155.3,248c0,3.2-2.6,5.8-5.8,5.8s-5.8-2.6-5.8-5.8s2.6-5.8,5.8-5.8S155.3,244.8,155.3,248"/>
</g>
<g>
	<path class="st2" d="M107.3,199.9c0,3.2-2.6,5.8-5.8,5.8c-3.2,0-5.8-2.6-5.8-5.8s2.6-5.8,5.8-5.8
		C104.7,194.1,107.3,196.7,107.3,199.9"/>
</g>
<g>
	<path class="st2" d="M126.5,230.6c0,3.2-2.6,5.8-5.8,5.8c-3.2,0-5.8-2.6-5.8-5.8s2.6-5.8,5.8-5.8S126.5,227.4,126.5,230.6"/>
</g>
<g>
	<path class="st2" d="M109.8,146.9c0,3.2-2.6,5.8-5.8,5.8c-3.2,0-5.8-2.6-5.8-5.8s2.6-5.8,5.8-5.8
		C107.2,141.1,109.8,143.7,109.8,146.9"/>
</g>
<path class="st2" d="M175,99.2c41.8,0,75.8,34,75.8,75.8s-34,75.8-75.8,75.8s-75.8-34-75.8-75.8S133.2,99.2,175,99.2 M175,96.2
	c-43.5,0-78.8,35.3-78.8,78.8s35.3,78.8,78.8,78.8s78.8-35.3,78.8-78.8S218.5,96.2,175,96.2L175,96.2z"/>
</svg>
